<?xml version="1.0" standalone="no"?><!DOCTYPE svg PUBLIC "-//W3C//DTD SVG 1.1//EN" "http://www.w3.org/Graphics/SVG/1.1/DTD/svg11.dtd"><svg t="1619489883347" class="icon" viewBox="0 0 1024 1024" version="1.1" xmlns="http://www.w3.org/2000/svg" p-id="4942" xmlns:xlink="http://www.w3.org/1999/xlink" width="16" height="16"><defs><style type="text/css"></style></defs><path d="M102.4 396.8c-25.6 0-51.2 19.2-51.2 51.2v38.4c0 25.6 19.2 51.2 51.2 51.2h819.2c25.6 0 51.2-19.2 51.2-51.2v-44.8c0-25.6-19.2-51.2-51.2-51.2H102.4z m819.2 185.6H102.4C44.8 582.4 0 537.6 0 486.4v-44.8c0-57.6 44.8-102.4 102.4-102.4h819.2c57.6 0 102.4 44.8 102.4 102.4v38.4c0 57.6-44.8 102.4-102.4 102.4z" p-id="4943" fill="#546281"></path><path d="M652.8 371.2h-51.2V96c0-25.6-19.2-44.8-38.4-44.8H460.8c-19.2 0-38.4 19.2-38.4 44.8v275.2h-51.2V96C371.2 44.8 409.6 0 460.8 0h102.4c51.2 0 89.6 44.8 89.6 96v275.2zM838.4 1024H185.6c-51.2 0-89.6-44.8-89.6-96V556.8h51.2v371.2c0 25.6 19.2 44.8 38.4 44.8H832c19.2 0 38.4-19.2 38.4-44.8V556.8h51.2v371.2c6.4 51.2-38.4 96-83.2 96" p-id="4944" fill="#546281"></path><path d="M320 1011.2c-12.8 0-25.6-12.8-25.6-25.6v-166.4c0-12.8 12.8-25.6 25.6-25.6s25.6 12.8 25.6 25.6v166.4c0 12.8-6.4 25.6-25.6 25.6M512 1011.2c-12.8 0-25.6-12.8-25.6-25.6v-166.4c0-12.8 12.8-25.6 25.6-25.6s25.6 12.8 25.6 25.6v166.4c0 12.8-12.8 25.6-25.6 25.6M704 1011.2c-12.8 0-25.6-12.8-25.6-25.6v-166.4c0-12.8 12.8-25.6 25.6-25.6s25.6 12.8 25.6 25.6v166.4c0 12.8-12.8 25.6-25.6 25.6" p-id="4945" fill="#546281"></path></svg>