<?xml version="1.0" standalone="no"?><!DOCTYPE svg PUBLIC "-//W3C//DTD SVG 1.1//EN" "http://www.w3.org/Graphics/SVG/1.1/DTD/svg11.dtd"><svg t="1619489727638" class="icon" viewBox="0 0 1024 1024" version="1.1" xmlns="http://www.w3.org/2000/svg" p-id="4135" xmlns:xlink="http://www.w3.org/1999/xlink" width="16" height="16"><defs><style type="text/css"></style></defs><path d="M617.768 277.525v-0.28h-431.95l138.178-138.18c10.091-10.102 10.091-26.46 0-36.562-10.094-10.091-26.463-10.091-36.554 0L108.126 281.828a25.912 25.912 0 0 0-3.465 2.877c-10.094 10.089-10.094 26.468 0 36.56l182.781 182.77c10.091 10.102 26.46 10.102 36.554 0 10.091-10.089 10.091-26.46 0-36.549l-138.18-138.183h431.95v0.316c144.893 6.792 260.28 126.407 260.28 272.977 0 146.584-115.387 266.199-260.28 272.991v0.316H201.313c-14.373 0-26.03 11.646-26.03 26.019 0 14.384 11.659 26.03 26.03 26.03h416.455v-0.28C791.416 920.839 930.111 777.93 930.111 602.6c-0.003-175.331-138.695-318.243-312.343-325.075z" p-id="4136" fill="#546281"></path></svg>